<svg width="150" height="80" viewBox="0 0 150 80" fill="none" xmlns="http://www.w3.org/2000/svg">
<path d="M110 0C132.091 0 150 17.9086 150 40C150 62.0914 132.091 80 110 80C100.115 80 91.0689 76.4137 84.0894 70.4716C79.3069 66.4 70.6931 66.4 65.9106 70.4716C58.9311 76.4137 49.8849 80 40 80C17.9086 80 0 62.0914 0 40C0 17.9086 17.9086 0 40 0C49.8849 0 58.9313 3.5862 65.9108 9.52814C70.6933 13.5996 79.3067 13.5996 84.0892 9.52814C91.0687 3.5862 100.115 0 110 0Z" fill="white"/>
<path d="M110 0C132.091 0 150 17.9086 150 40C150 62.0914 132.091 80 110 80C100.115 80 91.0689 76.4137 84.0894 70.4716C79.3069 66.4 70.6931 66.4 65.9106 70.4716C58.9311 76.4137 49.8849 80 40 80C17.9086 80 0 62.0914 0 40C0 17.9086 17.9086 0 40 0C49.8849 0 58.9313 3.5862 65.9108 9.52814C70.6933 13.5996 79.3067 13.5996 84.0892 9.52814C91.0687 3.5862 100.115 0 110 0Z" fill="#FFF1EC"/>
<path d="M110 0C132.091 0 150 17.9086 150 40C150 62.0914 132.091 80 110 80C100.115 80 91.0689 76.4137 84.0894 70.4716C79.3069 66.4 70.6931 66.4 65.9106 70.4716C58.9311 76.4137 49.8849 80 40 80C17.9086 80 0 62.0914 0 40C0 17.9086 17.9086 0 40 0C49.8849 0 58.9313 3.5862 65.9108 9.52814C70.6933 13.5996 79.3067 13.5996 84.0892 9.52814C91.0687 3.5862 100.115 0 110 0Z" fill="url(#paint0_radial_83_78)"/>
<path d="M110 0C132.091 0 150 17.9086 150 40C150 62.0914 132.091 80 110 80C100.115 80 91.0689 76.4137 84.0894 70.4716C79.3069 66.4 70.6931 66.4 65.9106 70.4716C58.9311 76.4137 49.8849 80 40 80C17.9086 80 0 62.0914 0 40C0 17.9086 17.9086 0 40 0C49.8849 0 58.9313 3.5862 65.9108 9.52814C70.6933 13.5996 79.3067 13.5996 84.0892 9.52814C91.0687 3.5862 100.115 0 110 0Z" fill="url(#paint1_radial_83_78)"/>
<path d="M110 0C132.091 0 150 17.9086 150 40C150 62.0914 132.091 80 110 80C100.115 80 91.0689 76.4137 84.0894 70.4716C79.3069 66.4 70.6931 66.4 65.9106 70.4716C58.9311 76.4137 49.8849 80 40 80C17.9086 80 0 62.0914 0 40C0 17.9086 17.9086 0 40 0C49.8849 0 58.9313 3.5862 65.9108 9.52814C70.6933 13.5996 79.3067 13.5996 84.0892 9.52814C91.0687 3.5862 100.115 0 110 0Z" fill="url(#paint2_radial_83_78)"/>
<path d="M110 0C132.091 0 150 17.9086 150 40C150 62.0914 132.091 80 110 80C100.115 80 91.0689 76.4137 84.0894 70.4716C79.3069 66.4 70.6931 66.4 65.9106 70.4716C58.9311 76.4137 49.8849 80 40 80C17.9086 80 0 62.0914 0 40C0 17.9086 17.9086 0 40 0C49.8849 0 58.9313 3.5862 65.9108 9.52814C70.6933 13.5996 79.3067 13.5996 84.0892 9.52814C91.0687 3.5862 100.115 0 110 0Z" fill="url(#paint3_radial_83_78)"/>
<defs>
<radialGradient id="paint0_radial_83_78" cx="0" cy="0" r="1" gradientTransform="matrix(-58.9028 -73.0801 165.371 -43.1724 123.261 81.3559)" gradientUnits="userSpaceOnUse">
<stop offset="0.634139" stop-color="#FF6216"/>
<stop offset="1" stop-color="#FFDB74" stop-opacity="0"/>
</radialGradient>
<radialGradient id="paint1_radial_83_78" cx="0" cy="0" r="1" gradientTransform="matrix(-59.9736 -69.0707 155.963 -28.754 107.609 73.8983)" gradientUnits="userSpaceOnUse">
<stop offset="0.493539" stop-color="#FFC658"/>
<stop offset="1" stop-color="#FFC658" stop-opacity="0"/>
</radialGradient>
<radialGradient id="paint2_radial_83_78" cx="0" cy="0" r="1" gradientTransform="matrix(-47.6131 -52.367 160.094 -52.6491 89.6739 82.7119)" gradientUnits="userSpaceOnUse">
<stop stop-color="#FF596F"/>
<stop offset="1" stop-color="#FF5E72" stop-opacity="0"/>
</radialGradient>
<radialGradient id="paint3_radial_83_78" cx="0" cy="0" r="1" gradientTransform="matrix(-81.4116 -49.7136 149.807 -68.2493 117.391 76.6102)" gradientUnits="userSpaceOnUse">
<stop stop-color="#FF596F"/>
<stop offset="0.690597" stop-color="#FF5E72" stop-opacity="0"/>
</radialGradient>
</defs>
</svg>
